PathFileType	4	(X/Y/Z)	Kaydara	
DataRate	CameraRate	NumFrames	NumMarkers	Units	OrigDataRate	OrigDataStartFrame	OrigNumFrames	
120.00	120.00	4	72	mm	120.00	68	268	
Frame#	Time	Hips			RightUpLeg			RightLeg			RightFoot			RightFoot_End			LeftUpLeg			LeftLeg			LeftFoot			LeftFoot_End			Spine			Spine1			Spine2			Spine3			Neck			Head			Head_End			RightShoulder			RightArm			RightForeArm			RightHand			RightHandThumb1			RightHandThumb2			RightHandThumb3			RightHandThumb3_End			RightInHandIndex			RightHandIndex1			RightHandIndex2			RightHandIndex3			RightHandIndex3_End			RightInHandMiddle			RightHandMiddle1			RightHandMiddle2			RightHandMiddle3			RightHandMiddle3_End			RightInHandRing			RightHandRing1			RightHandRing2			RightHandRing3			RightHandRing3_End			RightInHandPinky			RightHandPinky1			RightHandPinky2			RightHandPinky3			RightHandPinky3_End			LeftShoulder			LeftArm			LeftForeArm			LeftHand			LeftHandThumb1			LeftHandThumb2			LeftHandThumb3			LeftHandThumb3_End			LeftInHandIndex			LeftHandIndex1			LeftHandIndex2			LeftHandIndex3			LeftHandIndex3_End			LeftInHandMiddle			LeftHandMiddle1			LeftHandMiddle2			LeftHandMiddle3			LeftHandMiddle3_End			LeftInHandRing			LeftHandRing1			LeftHandRing2			LeftHandRing3			LeftHandRing3_End			LeftInHandPinky			LeftHandPinky1			LeftHandPinky2			LeftHandPinky3			LeftHandPinky3_End			
		X1	Y1	Z1	X2	Y2	Z2	X3	Y3	Z3	X4	Y4	Z4	X5	Y5	Z5	X6	Y6	Z6	X7	Y7	Z7	X8	Y8	Z8	X9	Y9	Z9	X10	Y10	Z10	X11	Y11	Z11	X12	Y12	Z12	X13	Y13	Z13	X14	Y14	Z14	X15	Y15	Z15	X16	Y16	Z16	X17	Y17	Z17	X18	Y18	Z18	X19	Y19	Z19	X20	Y20	Z20	X21	Y21	Z21	X22	Y22	Z22	X23	Y23	Z23	X24	Y24	Z24	X25	Y25	Z25	X26	Y26	Z26	X27	Y27	Z27	X28	Y28	Z28	X29	Y29	Z29	X30	Y30	Z30	X31	Y31	Z31	X32	Y32	Z32	X33	Y33	Z33	X34	Y34	Z34	X35	Y35	Z35	X36	Y36	Z36	X37	Y37	Z37	X38	Y38	Z38	X39	Y39	Z39	X40	Y40	Z40	X41	Y41	Z41	X42	Y42	Z42	X43	Y43	Z43	X44	Y44	Z44	X45	Y45	Z45	X46	Y46	Z46	X47	Y47	Z47	X48	Y48	Z48	X49	Y49	Z49	X50	Y50	Z50	X51	Y51	Z51	X52	Y52	Z52	X53	Y53	Z53	X54	Y54	Z54	X55	Y55	Z55	X56	Y56	Z56	X57	Y57	Z57	X58	Y58	Z58	X59	Y59	Z59	X60	Y60	Z60	X61	Y61	Z61	X62	Y62	Z62	X63	Y63	Z63	X64	Y64	Z64	X65	Y65	Z65	X66	Y66	Z66	X67	Y67	Z67	X68	Y68	Z68	X69	Y69	Z69	X70	Y70	Z70	X71	Y71	Z71	X72	Y72	Z72	

68	0.558	6446.805	859.65103	-201.189	6528.558365373984	855.1444399519913	-237.23194245669674	6400.2971234385905	461.6917031849078	-294.71087513259147	6446.345625635694	50.776842355935685	-370.1519139619073	6377.659692415307	-30.692510116905552	-213.53132901861815	6374.086877913115	835.6695471744645	-152.40620101827474	6263.34738627398	436.70216580682967	-91.6773597363129	6213.134445716479	52.953199388478495	72.30751171311528	6250.506165283309	15.682025546250777	255.07692205681352	6402.297864455781	984.3483024374195	-254.7479059161363	6350.794076000472	1052.4092011058513	-300.7202404941885	6291.001514997273	1117.0844420872133	-349.67298122992236	6226.102081833227	1169.8132645850378	-398.54925802574104	6156.099507187478	1226.6310952099802	-447.45703269945943	6111.112674183302	1299.7880931687027	-406.40770812038255	6091.51244966815	1385.2640275571966	-273.43466830088755	6198.662854126271	1214.6889989696763	-452.20468596991884	6278.812728364352	1215.4269544536817	-537.9966270417918	6334.311891619952	976.8737630769144	-584.0679506673835	6425.124878337377	808.9533844808798	-706.6084874801218	6448.412755896863	808.9954150765774	-727.7561562379353	6450.486914445292	801.2100831080668	-755.6174327890603	6450.462882427513	792.6357282386863	-773.8835427594508	6449.186604078169	782.7906535530899	-788.1389744559851	6447.358011746068	797.3686464738852	-724.9123734732948	6466.912538082216	769.396156415371	-751.7464003746345	6469.449008403162	751.6886490105398	-774.2130400649496	6464.627578803834	746.3838759597846	-789.1059563534346	6456.3209946200495	745.8406241088488	-802.057042526164	6442.1571354310045	789.8511448525929	-721.0676105972199	6458.420032558468	758.5008988496402	-745.1600013669592	6460.424327578359	738.2794981548708	-769.0859616206199	6454.241046261004	731.44810418679	-786.7707811484073	6444.974011638398	730.6439799238758	-800.8040707078326	6438.090427767265	785.2098107986351	-717.6259254250673	6449.44724506633	752.955891518232	-736.11109078762	6450.387008171146	734.4618810126234	-756.3248852187185	6443.99406859852	727.4110032802248	-773.0433387439923	6435.077570095411	726.4362578586724	-786.0770653473429	6431.99617194884	781.0176823902478	-713.2016277210181	6439.019878545786	748.6933646176601	-727.300975413437	6438.462789830647	732.6693490745967	-742.4083961100819	6433.166245674573	726.9388185107173	-754.0809384841355	6424.903089561792	725.7371889539195	-765.3263044008427	6159.707904285806	1204.0062404900764	-408.14535414575903	6103.874138918275	1135.9919992599234	-327.7421338816647	6191.047658687419	990.40892773592	-509.46032256268836	6395.418171542166	877.5931055909062	-534.7977463220809	6380.244022169187	891.6085695839669	-559.8520846324918	6383.665887019683	889.9486467461529	-593.2785301702808	6386.599662956265	884.9862086699175	-616.5774561063123	6389.5166155731395	877.5929034458444	-636.0185093620366	6378.8405136107	879.7450594534977	-561.8321292058121	6364.1487695929745	866.7679709189306	-604.9281265681415	6364.531742059936	855.0890508862974	-637.0180613840438	6371.28338174585	850.4823837075596	-654.7597105245335	6381.26530265208	848.4597298340473	-667.9546653556399	6381.354105680748	869.7178850739265	-560.4883494864121	6368.380796194529	851.6374727998106	-601.7954384790744	6369.19125859721	837.6091703042085	-636.4974661547201	6377.525264939837	831.4351173637658	-657.7511976286081	6388.538889207836	828.9223740434956	-672.1155005169607	6383.397842220321	862.9642655937633	-558.4266223872947	6373.232146635131	840.8962892884769	-593.6194115529208	6374.361421310181	827.3850036080988	-623.4794426180474	6382.624813930322	820.7476835360565	-643.7751560817634	6393.086831993796	818.0619089332934	-657.1839770814115	6387.02210497505	855.5608498168874	-554.9011362487328	6379.568665152904	830.7499285173571	-584.9779218627791	6381.177798312174	818.0233950696903	-608.1325447316794	6387.546113228288	812.2595302346774	-622.5705305977241	6397.009984731781	809.3494194410432	-634.2380483105613
69	0.567	6446.805	859.65103	-201.189	6528.098354537938	855.2187896911	-236.89463686416735	6400.516347495331	461.5985286212695	-293.79439896491397	6447.272207586843	51.24000720900306	-369.63379227833053	6379.326401034495	-30.43152412822139	-213.2691940412267	6374.5238323202175	835.5688437742914	-152.7895813352794	6263.87788619479	436.6203865527694	-91.84662863895794	6213.258797446015	53.372238420401864	73.04618653331575	6250.909556973779	16.44406253511417	255.76503359434267	6402.427038153157	984.4595123194326	-254.56677977971808	6351.076997212228	1052.7175361743305	-300.3920331520637	6291.44292879856	1117.592436570971	-349.2072834982887	6226.782584564542	1170.648214501937	-397.9825894034734	6157.033542057897	1227.8049872541676	-446.77668796104774	6112.3063083349325	1301.0854527907115	-405.7295660072281	6092.59590571941	1386.6698094683322	-272.88800292054503	6199.454602155317	1215.8751910585986	-451.2738367942205	6279.481472582037	1217.4470176178322	-535.8691798466888	6337.438458531023	980.7202836290676	-582.1626558586183	6430.287706463809	816.5266881858322	-705.7725399851029	6453.77550158689	817.3904857231241	-726.4324892527957	6456.384409033152	810.3165694729491	-754.2205960230897	6456.750992488203	802.1923849651112	-772.521530337574	6455.815936624585	792.6838797068154	-786.8793759119086	6452.780270472398	805.686940016401	-723.8308595926221	6472.903361435188	778.6415294270271	-750.6969645532514	6475.964382190265	761.5253866576272	-773.2959459321781	6471.480853834179	756.5236686953065	-788.2591639373218	6463.461901756811	756.1876831018462	-801.2603614402016	6447.615275859563	798.0115153464887	-720.2235164963628	6464.452105418723	767.480109325683	-744.4755845134684	6467.031840637257	747.8800932833384	-768.5773162824258	6461.257688704554	741.402849127616	-786.3620012005297	6452.306087524581	740.8199333346178	-800.4574373854904	6443.558333123359	793.2353857630478	-716.9481999268643	6455.434835685359	761.5995705128001	-735.7192787704594	6456.878380715238	743.6214254382846	-756.1180843039222	6450.881261228922	736.8984861254878	-772.9497577445168	6442.261909872935	736.1252556541372	-786.0499224768315	6437.467340254224	788.8576145082855	-712.7190543509416	6444.966282135926	756.9875282496686	-727.1991156619102	6444.8138179679245	741.3337494121968	-742.5030676195803	6439.806574129574	735.8216907840101	-754.2815966735	6431.8069803154385	734.7866416708042	-765.5992850985673	6160.596919247085	1204.9138362684341	-407.79142009856395	6104.820049094669	1136.7361274501618	-328.7906674482111	6192.764927097191	993.5710917812337	-510.0072554701873	6397.219815263206	884.1996487356794	-534.5838146480944	6382.7042316149955	898.855696813512	-559.5335236495055	6386.458882826838	897.4186749975443	-592.6928389774532	6389.543646692652	892.5945726026225	-615.8335165138789	6392.517379573806	885.3021406600496	-635.1664111827586	6381.088046489555	887.0388584848997	-561.6282825481687	6366.707072631885	874.8395741144965	-604.7356410482907	6367.218604375579	863.4431062037347	-636.7014091239005	6374.043702085571	858.8233766199996	-654.2698568112639	6384.082062072565	856.6626519725266	-667.2566930945296	6383.36698689658	876.9263645629443	-560.3533902373072	6370.569895200893	859.5585235760889	-601.7088594168646	6371.488561819885	845.8243285805286	-636.2842842153061	6379.895798748265	839.6277477386219	-657.3333192237367	6390.963693963183	836.960639385377	-671.4719759634149	6385.237436073162	870.0952910536126	-558.3415670462621	6375.080482770262	848.6065039014654	-593.6254964776617	6376.270997886409	835.3359952238437	-623.384171100882	6384.587464634816	828.668677004044	-643.4872130260908	6395.092188725961	825.8338421691524	-656.6861322900633	6388.649628812233	862.5590188942822	-554.8612560012062	6381.074991496314	838.2066395695197	-585.0546057183246	6382.68152837141	825.6460777516385	-608.141684430009	6389.063578034986	819.8473517884365	-622.4457225192887	6398.55090508518	816.7977274536471	-633.9310925697054
70	0.575	6446.805	859.65103	-201.189	6527.624936546425	855.284251186711	-236.55384136014308	6400.723930166679	461.4968292727724	-292.859405627272	6448.181510282055	51.701217985099	-369.1063934645205	6380.981158677008	-30.175958588789843	-213.00350914602132	6374.974353458707	835.478604456997	-153.17357131383358	6264.397863901689	436.55516292054585	-92.02098834480718	6213.353248944508	53.81710707104927	73.76961683789054	6251.279140322329	17.205225615953175	256.429212986416	6402.556332488083	984.5643784242844	-254.3984285357773	6351.35767783755	1053.0149409953694	-300.0790323432487	6291.878953183278	1118.0847091085827	-348.7572548983174	6227.4533330433	1171.4626200522473	-397.427588021846	6157.952495756209	1228.9524588648137	-446.102973551949	6113.489544372284	1302.35443043163	-405.0553153140452	6093.660824674256	1388.0531033311515	-272.35103441491947	6200.224778327042	1217.0307714108924	-450.3454724043915	6280.090852176173	1219.4205090774492	-533.7077344373085	6340.510005624923	984.598287634401	-580.1116981449142	6435.342260722861	824.3000373040105	-704.6579665347278	6458.981324726421	825.9984213092897	-724.8112992743032	6462.100240494511	819.6568819798097	-752.4933901801558	6462.846220097394	811.9996289481776	-770.8062776384803	6462.248175061418	802.8435171408371	-785.2474727654135	6458.061506464747	814.2272078570259	-722.4511847312518	6478.730519090788	788.1496504668642	-749.3148202139488	6482.306641516057	771.6523024886056	-772.0163022648901	6478.155464169742	766.9652481116267	-787.0307650584759	6470.419768872101	766.8424644380337	-800.065959982205	6452.949827780234	806.3982810896365	-719.0821958771928	6470.347932887987	776.7278760820992	-743.460751608609	6473.495179548998	757.7796263404026	-767.7059205298804	6468.124603790398	751.6707531021608	-785.5675888292113	6459.484204269374	751.3156454147362	-799.7075933165462	6448.91551578727	801.4894707471141	-715.9748417286021	6461.311443333866	770.511473174499	-735.00362539128	6463.254314205391	753.076067332127	-755.5595441671336	6457.6489618417545	746.6949925415082	-772.4825172917973	6449.323396429153	746.1295812403981	-785.6326637989401	6442.843501032745	796.9270618933027	-711.943276255962	6450.827022263501	765.5483720329539	-726.7798386350812	6451.079445248256	750.2867892110474	-742.2585493705866	6446.360398605831	745.0035730141018	-754.1273507155678	6438.622456096975	744.1408112840425	-765.5029418722428	6161.480698141599	1205.802562593717	-407.45302300748904	6105.790210019518	1137.4990844749113	-329.87568284958115	6194.508699515115	996.7781608965468	-510.48507500970516	6398.928071396316	890.9341736486366	-534.2099456191554	6385.085825821349	906.217003836329	-559.0094759734063	6389.17225213212	905.0008127988183	-591.8796701264096	6392.40813234451	900.3175445048472	-614.8508672101035	6395.439464848174	893.1314393537515	-634.0697320463985	6383.263491307971	894.4596557741696	-561.2276237037222	6369.21945536103	883.0514582627366	-604.3128434449385	6369.86607447794	871.9468972953302	-636.1406449587486	6376.759567629918	867.3158591068208	-653.531807399116	6386.84402393337	865.015733360211	-666.3101773614273	6385.3085786620795	884.2721065866567	-560.0343405719881	6372.7136632974225	867.6353443258049	-601.4123936470537	6373.747663497519	854.2068854511768	-635.8479563669742	6382.2220259975375	847.9905219565798	-656.6882313330087	6393.332876655896	845.167898897695	-670.6012811153321	6387.005766201052	877.3705180587502	-558.082187506557	6376.881219761892	856.4836068003697	-593.4423923325467	6378.139152996969	843.4653217375447	-623.0900341670174	6386.502785809919	836.7713496116197	-642.9974835324442	6397.039567339124	833.7867034942878	-655.9870111448109	6390.204142139208	869.7087954759224	-554.6598813851606	6382.529377666369	845.8404244028115	-584.9638030255691	6384.138104315676	833.4569465060189	-607.9785881749573	6390.529501574374	827.6267401956875	-622.1479986243824	6400.030806488687	824.4374788419384	-633.452507784221
71	0.583	6446.805	859.65103	-201.189	6527.138654207988	855.3411346001315	-236.2098093893222	6400.920500171331	461.3870821431044	-291.9077648825376	6449.071594447603	52.16046590866529	-368.5717521377665	6382.621454464998	-29.925929675245662	-212.73662893468372	6375.437899157315	835.3985117628027	-153.5578995063796	6264.906859786924	436.5061697575826	-92.2002467475922	6213.41851601309	54.286608099536494	74.47740963366952	6251.615628182369	17.96423652238668	257.06931785053274	6402.68571147741	984.6629132153404	-254.24291610704964	6351.635934843792	1053.301329936562	-299.7813695707359	6292.3093592457635	1118.561229398172	-348.3230881523489	6228.113849810682	1172.2561811659127	-396.88454397039845	6158.855688010162	1230.0730016970535	-445.436298139985	6114.661426991201	1303.5945603060231	-404.3854385554866	6094.707190932055	1389.4131946646096	-271.82395887376015	6200.972900535031	1218.1554164751308	-449.42040141857615	6280.641180233145	1221.346914641332	-531.515296711054	6343.5239270375405	988.5033110384077	-577.919823553529	6440.282468949605	832.259815543301	-703.2684127188243	6464.0251454678255	834.8039669924549	-722.8975542135911	6467.629076074523	829.2136182270087	-750.4417939846277	6468.742825959509	822.0386071812635	-768.7442593065533	6468.47704406409	813.2495419986125	-783.2499751410677	6463.195967962743	822.9742443582633	-720.7776738394451	6484.387621367988	797.9028853606889	-747.6046396995647	6488.468616145818	782.0498672498342	-770.3791226239069	6484.643806726476	777.6879460550647	-785.4261824966057	6477.186669972764	777.7833837855386	-798.4797325806882	6458.154418943267	814.9964334941571	-717.6474005729119	6476.100184981344	786.2269284522554	-742.1192832939686	6479.806082365796	767.9587923723429	-766.4758507167458	6474.832968857621	762.23115325024	-784.3920773259289	6466.4991671763455	762.1094586822146	-798.5595699875486	6454.155183197902	809.9572602436381	-714.7091865906584	6467.069057489576	779.67494854882	-733.9671243159507	6469.505905310089	762.8074205562895	-754.652437880297	6464.287683499399	756.7808467131125	-771.6451896095201	6456.252172758838	756.4286331474634	-784.8293102522633	6448.117381711106	805.2115085465713	-710.877157709175	6456.593419106469	774.3598713833646	-726.0453965609589	6457.250156619372	759.5111215920748	-741.677116545939	6452.817720172553	754.4662101208576	-753.6207085464192	6445.339156664476	753.7806414355966	-765.0401465420545	6162.358515173254	1206.6719063050093	-407.13006230322185	6106.783674638311	1138.2792437831743	-330.995313669712	6196.277810519131	1000.0248772910808	-510.89405357344134	6400.542321130366	897.785333769649	-533.6781666982911	6387.386611036349	913.6807507571226	-558.2831757172833	6391.803657043607	912.6836212689458	-590.8428622749735	6395.1908713988605	908.1438294968385	-613.633587997285	6398.280859728038	901.0695685539702	-632.7325989205885	6385.365082754989	901.9953381500587	-560.6328719071066	6371.683568827767	891.3905367007696	-603.6627600900711	6372.4719703659275	880.5872045551356	-635.3389065524615	6379.429105466218	875.946956792126	-652.5488356551032	6389.549709630946	873.5066739871687	-665.1185486931558	6387.177679333319	891.7428792483074	-559.5334149772891	6374.810634297397	875.8546892632187	-600.9082822011181	6375.9673566045485	862.743438235416	-635.1907774023662	6384.503149508208	856.5104481692588	-655.8183599710884	6395.646089511792	853.5317864342735	-669.5059981608483	6388.702039389886	884.7776495226333	-557.6503337396996	6378.633668122057	864.5143176643134	-593.0716562319711	6379.965502193667	851.7595556546083	-622.5985665267572	6388.370830372151	845.0426646110104	-642.3075921034687	6398.929463223855	841.9080418559774	-655.0883675600447	6391.68537637268	876.9978840047752	-554.2984339422892	6383.93195770791	853.6380656297285	-584.7064024413896	6385.548027525639	841.4426541655175	-607.6440199039879	6391.9447637765	835.5846275313695	-621.6781366928265	6401.450995094903	832.2561211908419	-632.8031566454728
